<?xml version="1.0" encoding="UTF-8"?>
<svg xmlns="http://www.w3.org/2000/svg" viewBox="0 0 993.53 543.94">
  <g id="Layer_1" data-name="Layer 1"/>
  <g id="Layer_2" data-name="Layer 2">
    <g id="Layer_1-2" data-name="Layer 1">
      <path d="M984.96,371.11c-1.18,.77-2.44,.4-3.63,.4-17.99,.03-35.99-.02-53.98,.07-2.46,.01-4.14-.64-5.75-2.57-45.19-54.07-90.43-108.09-135.68-162.12-2.63-3.14-5.32-6.24-8.5-9.97-.77,4.87-1.47,9.07-2.09,13.28-4.99,34.24-9.98,68.48-14.94,102.72-2.62,18.11-5.17,36.22-7.75,54.34-.57,4.01-4.35,5.91-8.06,4.07-1.4-.69-1.16-2.15-1.45-3.22-6.34-23.64-12.58-47.31-18.84-70.98-1.33-5.04-2.14-10.29-4.07-15.1-2.88-7.19-1.33-14.19-.3-21.29,3.15-21.8,6.35-43.6,9.54-65.4,2.9-19.83,5.82-39.66,8.7-59.49,2.88-19.83,5.67-39.67,8.56-59.5,2.91-19.95,5.92-39.89,8.76-59.85,.3-2.09,1-2.56,2.98-2.55,14.25,.08,28.49,.08,42.74,0,2.22-.01,2.7,.64,2.38,2.79-3.7,24.74-7.33,49.5-10.95,74.25-3.06,20.93-6.08,41.87-9.1,62.8-.03,.22,.07,.47,.11,.76,1.39-.2,2.01-1.4,2.85-2.23,39.31-38.56,78.6-77.14,117.9-115.72,7.04-6.91,14.13-13.77,21.15-20.69,1.2-1.18,2.33-1.97,4.18-1.96,20.87,.07,41.74,.05,62.61,.05,.35,0,.7,.1,1.18,.18-.25,1.26-1.29,1.83-2.03,2.57-29.22,29.05-58.45,58.1-87.71,87.13-24.91,24.71-49.8,49.45-74.84,74.03-2.43,2.38-2.07,3.55-.13,5.87,37.41,44.64,74.73,89.36,112.07,134.06,14.07,16.85,28.16,33.69,42.22,50.55,.68,.82,1.7,1.45,1.86,2.7Z" fill="#0054fe"/>
      <path d="M609.09,153.73c-19.35,40.33-38.48,80.2-57.79,120.44-5.3-12.79-10.45-25.24-15.88-38.37-1.82,3.69-3.35,6.76-4.86,9.85-19.94,40.93-39.88,81.86-59.8,122.8-.85,1.75-1.55,3.11-4,3.09-18.37-.11-36.74-.06-55.11-.07-.47,0-.93-.15-1.91-.32C481.5,247.48,553.11,124.05,625.08,0c2.69,10.15,5.2,19.61,7.71,29.07,18.16,68.32,36.33,136.63,54.47,204.95,11.83,44.55,23.59,89.12,35.47,133.65,.83,3.1,.42,3.94-3.01,3.9-15.74-.19-31.49-.16-47.23-.01-2.63,.02-3.71-.81-4.37-3.25-13.48-49.28-27.03-98.55-40.57-147.82-5.75-20.92-11.49-41.83-17.25-62.75-.32-1.16-.69-2.31-1.2-4.02Z" fill="#0054fe"/>
      <path d="M415.12,322.48c-3.41,5.98-6.51,11.47-9.66,16.93-5.47,9.49-11.03,18.92-16.43,28.45-1.48,2.62-3.2,3.76-6.43,3.76-52.98-.12-105.96-.09-158.94-.09-4.59,0-4.47,.01-3.77-4.53,2.92-19.06,5.77-38.14,8.63-57.21,2.88-19.19,5.76-38.39,8.63-57.59,3.13-20.92,6.25-41.84,9.39-62.76,2.84-18.95,5.71-37.9,8.56-56.85,3.16-21.04,6.28-42.09,9.45-63.13,2.61-17.35,5.33-34.68,7.8-52.05,.41-2.86,1.45-3.45,4.16-3.45,41.36,.09,82.72,.06,124.08,.06,12.5,0,24.99,.09,37.48-.06,3.02-.04,3.72,.59,3.18,3.71-2.33,13.36-4.45,26.75-6.41,40.17-.45,3.12-1.28,4.31-4.75,4.3-37.23-.15-74.47-.06-111.71-.16-3.01,0-4.21,.57-4.68,3.85-3.75,25.73-7.75,51.43-11.69,77.13-.39,2.55-2.02,5.84-.61,7.45,1.46,1.66,4.96,.5,7.56,.5,35.99,.03,71.97,.06,107.96-.05,3.16-.01,4.07,.67,3.57,3.88-2.13,13.65-4.09,27.32-6.01,40.99-.36,2.59-1.38,3.33-4.06,3.33-37.36-.11-74.72-.04-112.08-.14-3.19,0-4.24,.66-4.73,4.12-3.95,28.1-8.24,56.15-12.42,84.21-1.54,10.34-3.04,20.68-4.55,31.02-.61,4.2-.59,4.2,3.81,4.2,43.48,0,86.97,0,130.45,0,1.21,0,2.42,0,4.21,0Z" fill="#0054fe"/>
      <path d="M234.01,83.04c-10.55-34.12-44.27-64.24-91.33-68.3-15.6-1.34-31.22-.34-44.11-.72-16.21,0-29.7,.03-43.19-.04-1.99-.01-3.01,.17-3.29,2.63-.82,7.16-2.06,14.28-3.12,21.41-2.89,19.32-5.78,38.64-8.63,57.96-2.92,19.69-5.79,39.39-8.7,59.08-2.58,17.48-5.21,34.95-7.8,52.42-2.42,16.37-4.8,32.75-7.21,49.12-2.59,17.6-5.2,35.2-7.8,52.8-2.86,19.45-5.63,38.92-8.66,58.34-.48,3.04-.1,3.89,3.1,3.86,13.49-.16,26.98-.19,40.47,.03,3.19,.05,4.27-.92,4.72-3.93,2.69-18.22,5.55-36.41,8.34-54.61,4.21-27.42,8.38-54.85,12.61-82.26,.77-5,.85-5.03,5.84-4.83,22.89,.87,45.7,.55,68.29-3.83,27.03-5.24,51-15.99,69.28-37.52,25.58-30.1,32.79-64.06,21.19-101.61Zm-79.81,85.1c-11.8,6.91-24.98,9.91-38.34,12-11.99,1.87-24.09,2.48-36.22,2.66-2.83,.05-3.7-.62-3.26-3.48,3.98-25.83,7.89-51.67,11.79-77.52,2.09-13.9,4.17-27.81,6.1-41.74,.32-2.38,1.11-3.19,3.5-3.09,3.99,.18,7.99,.05,11.99,.05,11.5,.52,22.92,1.35,34.3,3.21,19.84,3.22,39.09,23.72,42.55,44.78,4.81,29.2-10.47,50.29-32.41,63.13Z" fill="#0054fe"/>
      <path d="M238.62,442.63c-16.35-28.44-46.9-42.46-81.18-34.63-30.24,6.91-63.58,37.99-51.07,84.19,6.91,25.52,33.88,50.79,68.81,49.79,20.44,.09,35.7-6.04,51.27-20.6,20.92-19.56,26.46-53.91,12.17-78.75Zm-33.26,71.92c-8.76,6.14-17.46,8.74-29.57,8.85-24.27,.22-45.87-15.02-51.51-36.79-8.57-33.15,15.99-57.3,38.98-61.38,21.07-3.74,39.61,1.49,53.48,18.45,18.12,22.16,12.81,53.92-11.38,70.87Z" fill="#0054fe"/>
      <path d="M735.33,438.39c-23.27-35.09-71.79-43.18-105.41-17.73-34.58,26.17-33.14,69.55-12.17,94.74,17.69,21.23,40.51,29.17,67.75,25.95,29.62-3.5,60.57-30.1,60.05-67.97,.05-13-3.35-24.63-10.22-34.99Zm-14.78,58.36c-9.83,17.55-25.29,26.63-39.52,26.75-23.57-.13-38.09-6.58-49.02-20.12-15.74-19.5-13.37-46.9,5.27-64.93,23.6-22.84,64.86-18,82.04,9.98,9.61,15.65,10.21,32.29,1.23,48.32Z" fill="#0054fe"/>
      <path d="M767.13,404.46c32.02,32.53,63.37,64.38,94.86,96.37,.93-1.87,.61-3.39,.61-4.85,.02-27.32,.08-54.64-.06-81.96-.02-3.28,.76-4.39,4.11-4.1,3.6,.31,7.25,.23,10.86,.02,2.56-.15,3.24,.83,3.07,3.2-.18,2.48-.04,4.99-.04,7.48v118.27c0,1.33,0,2.66,0,5.05-32.07-32.43-63.42-64.13-95.42-96.48,0,2.09,0,3.27,0,4.45,0,27.32-.05,54.64,.07,81.96,.01,3.03-.64,4.2-3.85,3.96-3.85-.28-7.74-.13-11.61-.04-1.92,.04-2.7-.65-2.62-2.61,.11-2.86,.03-5.74,.03-8.61,0-39.17,0-78.35,0-117.52v-4.59Z" fill="#0054fe"/>
      <path d="M428.76,454.03c0-13.6,.05-27.19-.05-40.79-.02-2.34,.46-3.29,3.03-3.16,4.24,.23,8.49,.14,12.74,.03,1.8-.05,2.32,.54,2.32,2.33-.09,27.44,.45,54.9-.34,82.32-.57,20.08-9.62,35.81-29.04,43.69-17.28,7.02-43.18,4.87-57.71-10.93-7.48-8.13-11.04-17.91-12.66-28.59-.71-4.7-.83-9.43-.83-14.17,.02-23.58,.07-47.15-.06-70.73-.02-2.96,.47-4.27,3.78-3.95,3.47,.33,7.01,.29,10.48,0,3.06-.25,3.95,.59,3.93,3.79-.15,25.45-.07,50.89-.1,76.34,0,3.89,.47,7.7,1.4,11.47,3.56,14.46,13.79,22.68,28.71,23.15,8.99,.28,17.47-1.12,24.45-7.32,7.35-6.52,9.74-15.19,9.87-24.57,.18-12.97,.04-25.95,.04-38.92h.02Z" fill="#0054fe"/>
      <path d="M948.21,542.06c-20.59,.12-38.03-11.49-46.68-33.06-.69-1.72-.33-2.48,1.39-2.94,4.45-1.19,8.89-2.39,13.3-3.71,1.93-.58,2.79,.06,3.65,1.83,4.71,9.66,11.62,16.91,22.74,18.68,7.76,1.24,15.17,.37,21.33-5.36,6.61-6.14,8.2-14.89,3.89-22.77-3.02-5.53-7.5-9.56-13.04-12.5-6.62-3.52-13.7-5.99-20.48-9.15-7.68-3.57-14.62-8.05-19.79-14.96-11.06-14.76-8.48-33.21,6.48-44.14,14.2-10.36,29.51-9.9,45.23-4.02,6.77,2.53,12.5,6.54,17.43,11.83,1.85,1.98,1.69,3.09-.45,4.63-3.43,2.48-6.74,5.15-9.97,7.9-1.59,1.35-2.56,1.16-3.99-.28-4.42-4.47-9.13-8.63-15.76-9.36-7.17-.79-14.24-.69-20.59,3.5-8.01,5.29-8.65,15.02-1.29,21.19,4.93,4.13,10.74,6.77,16.58,9.29,8.14,3.51,16.24,7.09,23.4,12.39,16.24,12.02,22.07,32.52,13.37,49.04-7.69,14.6-20.18,21.92-36.78,21.97Z" fill="#0054fe"/>
      <path d="M47.22,542.02c-21.55,.29-38.7-12.59-46.84-33.32-.69-1.76-.05-2.17,1.35-2.55,4.44-1.22,8.89-2.41,13.3-3.71,1.92-.57,2.91,0,3.8,1.81,2.66,5.43,6.13,10.27,11.14,13.86,9.32,6.67,22.98,7.06,31.29,.84,8.41-6.29,10.29-16.69,4.74-25.57-3.43-5.48-8.21-9.35-13.98-12.02-7.35-3.4-14.83-6.5-22.14-9.98-6.74-3.21-12.46-7.78-16.91-13.86-10.16-13.9-7.93-31.63,5.53-42.39,14.16-11.31,29.82-11.22,46.03-5.47,7.06,2.5,13.02,6.71,18.18,12.17,1.89,2,1.6,3.12-.45,4.61-3.23,2.34-6.4,4.78-9.41,7.4-1.95,1.69-3.24,1.97-5.13-.21-7.79-8.98-17.79-10.81-28.95-8.43-3.1,.66-5.88,2.08-8.35,4.03-6.12,4.83-6.63,13.06-1.23,18.75,3.33,3.51,7.51,5.76,11.79,7.81,6.41,3.07,12.96,5.84,19.31,9.01,7.41,3.71,14.24,8.3,19.26,15.07,9.28,12.51,11.22,26.18,4.34,40.12-7.02,14.23-19.16,21.53-35.18,22.04-.5,.02-1,0-1.5,0Z" fill="#0054fe"/>
      <path d="M512.75,482.83c0,17.22-.05,34.44,.06,51.66,.02,2.56-.59,3.51-3.28,3.34-3.73-.23-7.51-.29-11.24,.01-3.15,.25-3.6-1.03-3.59-3.79,.08-33.81,.06-67.63,.06-101.44q0-4.95-4.94-4.95c-7.62,0-15.24-.07-22.86,.05-2.21,.04-3.12-.45-2.99-2.86,.2-3.98,.19-7.99,0-11.97-.11-2.3,.57-2.96,2.9-2.93,10.74,.12,21.49,.05,32.24,.05,13.49,0,26.99,.14,40.48-.1,3.47-.06,4.23,1.01,3.98,4.16-.27,3.35-.24,6.74,0,10.1,.19,2.71-.5,3.66-3.43,3.58-7.99-.22-16,.07-23.99-.15-2.94-.08-3.46,.89-3.44,3.59,.12,17.22,.06,34.44,.06,51.66Z" fill="#0054fe"/>
      <path d="M271.49,473.84c0-20.07,.07-40.15-.07-60.22-.02-3.03,.9-3.88,3.79-3.69,3.48,.23,7,.26,10.48,0,2.98-.23,3.69,.77,3.68,3.69-.11,30.67-.07,61.34-.07,92.02,0,3.87,.16,7.74-.06,11.59-.15,2.54,.76,3.08,3.14,3.05,11.86-.11,23.72,.06,35.58-.13,2.93-.05,3.58,.85,3.41,3.55-.23,3.85-.16,7.73-.02,11.59,.07,2-.68,2.51-2.58,2.51-18.1-.06-36.21-.1-54.31,.03-3.16,.02-2.99-1.64-2.99-3.77,.03-20.07,.02-40.15,.02-60.22Z" fill="#0054fe"/>
      <path d="M580.3,473.89c0,20.08-.06,40.15,.07,60.23,.02,2.9-.7,3.93-3.69,3.71-3.73-.26-7.49-.18-11.23-.02-2.33,.1-3.05-.77-2.98-3.02,.13-4.61,.04-9.23,.04-13.84,0-35.54,.06-71.07-.09-106.61-.02-3.72,1.05-4.75,4.59-4.42,3.34,.31,6.75,.25,10.1,0,2.73-.2,3.26,.82,3.25,3.36-.1,20.2-.06,40.4-.06,60.6Z" fill="#0054fe"/>
    </g>
  </g>
</svg>